<mxfile host="65bd71144e">
    <diagram id="3N9IBWwKdIeYAe5WrNOO" name="Страница 1">
        <mxGraphModel dx="1174" dy="676" grid="1" gridSize="10" guides="1" tooltips="1" connect="1" arrows="1" fold="1" page="1" pageScale="1" pageWidth="827" pageHeight="1169" math="0" shadow="0">
            <root>
                <mxCell id="0"/>
                <mxCell id="1" parent="0"/>
                <mxCell id="44wcZcyYnVDtswB0kkQx-4" value="" style="edgeStyle=orthogonalEdgeStyle;rounded=0;orthogonalLoop=1;jettySize=auto;html=1;" parent="1" source="44wcZcyYnVDtswB0kkQx-1" target="44wcZcyYnVDtswB0kkQx-2" edge="1">
                    <mxGeometry relative="1" as="geometry"/>
                </mxCell>
                <mxCell id="44wcZcyYnVDtswB0kkQx-1" value="Start" style="ellipse;whiteSpace=wrap;html=1;" parent="1" vertex="1">
                    <mxGeometry x="235" y="20" width="120" height="70" as="geometry"/>
                </mxCell>
                <mxCell id="44wcZcyYnVDtswB0kkQx-6" value="" style="edgeStyle=orthogonalEdgeStyle;rounded=0;orthogonalLoop=1;jettySize=auto;html=1;entryX=0.5;entryY=0;entryDx=0;entryDy=0;" parent="1" source="44wcZcyYnVDtswB0kkQx-2" edge="1">
                    <mxGeometry relative="1" as="geometry">
                        <mxPoint x="295" y="270" as="targetPoint"/>
                    </mxGeometry>
                </mxCell>
                <mxCell id="44wcZcyYnVDtswB0kkQx-2" value="input a" style="shape=parallelogram;perimeter=parallelogramPerimeter;whiteSpace=wrap;html=1;fixedSize=1;" parent="1" vertex="1">
                    <mxGeometry x="180" y="130" width="230" height="80" as="geometry"/>
                </mxCell>
                <mxCell id="3" value="" style="edgeStyle=none;html=1;" edge="1" parent="1" source="44wcZcyYnVDtswB0kkQx-16" target="u4pSxsZISeBzqqQXbqPJ-2">
                    <mxGeometry relative="1" as="geometry"/>
                </mxCell>
                <mxCell id="44wcZcyYnVDtswB0kkQx-16" value="a%2=0" style="rhombus;whiteSpace=wrap;html=1;" parent="1" vertex="1">
                    <mxGeometry x="240" y="270" width="110" height="80" as="geometry"/>
                </mxCell>
                <mxCell id="44wcZcyYnVDtswB0kkQx-18" value="true" style="text;html=1;align=center;verticalAlign=middle;resizable=0;points=[];autosize=1;strokeColor=none;fillColor=none;" parent="1" vertex="1">
                    <mxGeometry x="245" y="350" width="40" height="30" as="geometry"/>
                </mxCell>
                <mxCell id="E_bE6YL93asdTYgiuK6n-1" value="false" style="text;html=1;align=center;verticalAlign=middle;resizable=0;points=[];autosize=1;strokeColor=none;fillColor=none;" parent="1" vertex="1">
                    <mxGeometry x="345" y="320" width="50" height="30" as="geometry"/>
                </mxCell>
                <mxCell id="E_bE6YL93asdTYgiuK6n-43" value="&lt;br&gt;Задача 6&lt;br&gt;&amp;nbsp;Напишите программу, которая на вход&lt;br&gt;&amp;nbsp;принимает число и выдаёт, является&amp;nbsp;ли &lt;br&gt;число чётным (делится ли оно на два без остатка)." style="text;html=1;align=center;verticalAlign=middle;resizable=0;points=[];autosize=1;strokeColor=none;fillColor=none;" parent="1" vertex="1">
                    <mxGeometry x="440" y="50" width="310" height="90" as="geometry"/>
                </mxCell>
                <mxCell id="4" value="" style="edgeStyle=none;html=1;exitX=0.5;exitY=0.863;exitDx=0;exitDy=0;exitPerimeter=0;" edge="1" parent="1" source="u4pSxsZISeBzqqQXbqPJ-2" target="u4pSxsZISeBzqqQXbqPJ-5">
                    <mxGeometry relative="1" as="geometry"/>
                </mxCell>
                <mxCell id="u4pSxsZISeBzqqQXbqPJ-2" value="print &quot;Да&quot;" style="shape=document;whiteSpace=wrap;html=1;boundedLbl=1;" parent="1" vertex="1">
                    <mxGeometry x="235" y="390" width="120" height="80" as="geometry"/>
                </mxCell>
                <mxCell id="u4pSxsZISeBzqqQXbqPJ-3" value="print &quot;Heт&quot;" style="shape=document;whiteSpace=wrap;html=1;boundedLbl=1;" parent="1" vertex="1">
                    <mxGeometry x="435" y="390" width="120" height="80" as="geometry"/>
                </mxCell>
                <mxCell id="u4pSxsZISeBzqqQXbqPJ-4" value="" style="endArrow=classic;html=1;rounded=0;exitX=1;exitY=0.5;exitDx=0;exitDy=0;entryX=0.5;entryY=0;entryDx=0;entryDy=0;" parent="1" source="44wcZcyYnVDtswB0kkQx-16" target="u4pSxsZISeBzqqQXbqPJ-3" edge="1">
                    <mxGeometry width="50" height="50" relative="1" as="geometry">
                        <mxPoint x="635" y="260" as="sourcePoint"/>
                        <mxPoint x="685" y="210" as="targetPoint"/>
                        <Array as="points">
                            <mxPoint x="495" y="310"/>
                        </Array>
                    </mxGeometry>
                </mxCell>
                <mxCell id="u4pSxsZISeBzqqQXbqPJ-5" value="End" style="ellipse;whiteSpace=wrap;html=1;" parent="1" vertex="1">
                    <mxGeometry x="235" y="520" width="120" height="80" as="geometry"/>
                </mxCell>
                <mxCell id="u4pSxsZISeBzqqQXbqPJ-7" value="" style="endArrow=classic;html=1;rounded=0;exitX=0.492;exitY=0.9;exitDx=0;exitDy=0;exitPerimeter=0;entryX=1;entryY=0.5;entryDx=0;entryDy=0;" parent="1" source="u4pSxsZISeBzqqQXbqPJ-3" target="u4pSxsZISeBzqqQXbqPJ-5" edge="1">
                    <mxGeometry width="50" height="50" relative="1" as="geometry">
                        <mxPoint x="635" y="260" as="sourcePoint"/>
                        <mxPoint x="685" y="210" as="targetPoint"/>
                        <Array as="points">
                            <mxPoint x="494" y="560"/>
                        </Array>
                    </mxGeometry>
                </mxCell>
            </root>
        </mxGraphModel>
    </diagram>
</mxfile>